<?xml version="1.0" encoding="utf-8"?>
<svg viewBox="108.987 120.458 275.334 231.358" xmlns="http://www.w3.org/2000/svg" xmlns:bx="https://boxy-svg.com">
  <defs>
    <bx:guide x="295.411" y="225.592" angle="0"/>
  </defs>
  <path d="M 376.53 235.488 C 376.53 222.635 372.686 210.315 365.1 198.858 C 358.29 188.575 348.749 179.473 336.745 171.801 C 313.565 156.995 283.098 148.838 250.963 148.838 C 240.229 148.838 229.648 149.745 219.386 151.543 C 213.02 145.583 205.566 140.221 197.679 135.983 C 155.544 115.561 120.602 135.503 120.602 135.503 C 120.602 135.503 153.089 162.191 147.806 185.583 C 133.273 200.002 125.394 217.388 125.394 235.488 C 125.394 235.544 125.397 235.603 125.397 235.661 C 125.397 235.718 125.394 235.774 125.394 235.835 C 125.394 253.935 133.27 271.321 147.806 285.737 C 153.089 309.131 120.602 335.82 120.602 335.82 C 120.602 335.82 155.544 355.759 197.679 335.34 C 205.565 331.102 213.017 325.737 219.386 319.78 C 229.65 321.576 240.229 322.482 250.963 322.482 C 283.1 322.482 313.564 314.331 336.745 299.524 C 348.749 291.853 358.29 282.754 365.101 272.466 C 372.686 261.011 376.531 248.685 376.531 235.838 C 376.531 235.778 376.528 235.723 376.528 235.664 L 376.53 235.488 Z" style="fill: #be123c"/>
  <path d="M 254.787 250.448 C 262.693 250.448 269.101 244.04 269.101 236.134 C 269.101 228.229 262.693 221.821 254.787 221.821 C 246.882 221.821 240.474 228.229 240.474 236.134 C 240.474 244.04 246.882 250.448 254.787 250.448 Z M 304.551 250.448 C 312.456 250.448 318.865 244.04 318.865 236.134 C 318.865 228.229 312.456 221.821 304.551 221.821 C 296.646 221.821 290.238 228.229 290.238 236.134 C 290.238 244.04 296.646 250.448 304.551 250.448 Z M 205.021 250.445 C 212.925 250.445 219.332 244.038 219.332 236.135 C 219.332 228.231 212.925 221.823 205.022 221.823 C 197.117 221.823 190.71 228.231 190.71 236.134 C 190.71 244.038 197.117 250.445 205.021 250.445 Z" style="fill: rgb(255, 255, 255);"/>
</svg>